<?xml version="1.0" encoding="UTF-8" standalone="no"?>
<svg
   version="1.2"
   x="0px"
   y="0px"
   width="200"
   height="42"
   viewBox="0 0 200 42"
   xml:space="preserve"
   id="svg12"
   sodipodi:docname="strava-logo.svg"
   inkscape:version="1.3.2 (091e20e, 2023-11-25, custom)"
   xmlns:inkscape="http://www.inkscape.org/namespaces/inkscape"
   xmlns:sodipodi="http://sodipodi.sourceforge.net/DTD/sodipodi-0.dtd"
   xmlns="http://www.w3.org/2000/svg"
   xmlns:svg="http://www.w3.org/2000/svg"><defs
     id="defs12" /><sodipodi:namedview
     id="namedview12"
     pagecolor="#ffffff"
     bordercolor="#000000"
     borderopacity="0.25"
     inkscape:showpageshadow="2"
     inkscape:pageopacity="0.0"
     inkscape:pagecheckerboard="0"
     inkscape:deskcolor="#d1d1d1"
     inkscape:zoom="3.07"
     inkscape:cx="114.00651"
     inkscape:cy="69.543974"
     inkscape:window-width="1920"
     inkscape:window-height="1009"
     inkscape:window-x="-8"
     inkscape:window-y="-8"
     inkscape:window-maximized="1"
     inkscape:current-layer="svg12" /><path
     fill="#fc5200"
     d="m 19.161621,40.397949 c -3.805664,0 -7.35791,-0.529785 -10.649902,-1.575684 C 5.219238,37.769043 2.383301,36.194824 0,34.101074 l 6.67041,-7.949707 c 2.027344,1.563477 4.166016,2.685059 6.403809,3.359375 2.241699,0.676758 4.467773,1.015137 6.673828,1.015137 1.141113,0 1.956055,-0.143555 2.456055,-0.424805 0.501953,-0.286621 0.746094,-0.678711 0.746094,-1.174316 v -0.106445 c 0,-0.538086 -0.368652,-0.98877 -1.094238,-1.337402 C 21.130372,27.126466 19.763185,26.754884 17.770997,26.364747 15.672852,25.935059 13.669435,25.434083 11.768556,24.866212 9.863771,24.301759 8.192872,23.568849 6.752443,22.678224 5.309572,21.791505 4.163088,20.666505 3.307131,19.315919 2.453127,17.961915 2.025881,16.306153 2.025881,14.351075 v -0.106934 c 0,-1.780762 0.346191,-3.437012 1.042969,-4.965332 C 3.756836,7.749512 4.772949,6.412109 6.10791,5.276855 7.443359,4.137207 9.101074,3.249511 11.077637,2.60498 13.04541,1.965332 15.315918,1.645507 17.881836,1.645507 c 3.625,0 6.800781,0.428711 9.523926,1.284668 2.723145,0.848145 5.166992,2.130859 7.34082,3.837891 l -6.083496,8.435059 c -1.779785,-1.28418 -3.658203,-2.217285 -5.631836,-2.806152 -1.97998,-0.588379 -3.831543,-0.882812 -5.57959,-0.882812 -0.922852,0 -1.607422,0.142578 -2.051758,0.427734 -0.452637,0.284668 -0.667969,0.660156 -0.667969,1.121094 v 0.105469 c 0,0.501953 0.334473,0.929199 1.013184,1.286133 0.679199,0.354004 1.994141,0.729004 3.948242,1.120117 2.385254,0.424805 4.554199,0.941895 6.516602,1.543457 1.953125,0.61084 3.639648,1.381348 5.041504,2.32666 1.405273,0.942383 2.494141,2.067383 3.256836,3.388184 0.763672,1.316895 1.147461,2.92041 1.147461,4.802734 v 0.109863 c 0,1.954102 -0.390137,3.719727 -1.17627,5.282715 -0.780762,1.567383 -1.88623,2.890137 -3.309082,3.978516 -1.424316,1.08252 -3.151855,1.917969 -5.179199,2.506348 -2.024902,0.589842 -4.306641,0.884764 -6.82959,0.884764 z"
     id="path1" /><polygon
     fill="#fc5200"
     points="69.446777,2.342285 69.446777,12.902832 58.447754,12.902832 58.447754,39.69873 45.95459,39.69873 45.95459,12.902832 34.958984,12.902832 34.958984,2.342285 "
     id="polygon1" /><path
     fill="#fc5200"
     d="m 89.086914,20.115234 c 1.495605,0 2.671875,-0.321289 3.521484,-0.960449 0.854004,-0.641602 1.283203,-1.534668 1.283203,-2.672852 v -0.10791 c 0,-1.207031 -0.429199,-2.108398 -1.283203,-2.689941 -0.849609,-0.588379 -2.011719,-0.879883 -3.466309,-0.879883 h -5.447754 v 7.311035 z M 71.203125,2.342285 h 18.258301 c 3.344238,0 6.092773,0.383789 8.244141,1.148438 2.15625,0.763672 3.886723,1.806641 5.204593,3.123535 1.1416,1.135254 1.99463,2.418945 2.5664,3.837402 0.56641,1.423828 0.85352,3.102051 0.85352,5.01416 v 0.11377 c 0,2.737305 -0.65869,5.050781 -1.97949,6.93457 -1.31299,1.885254 -3.10938,3.384766 -5.390628,4.48291 L 107.6582,39.69873 H 93.40918 L 86.361817,29.02539 H 86.260255 83.694337 V 39.69873 H 71.203125 Z"
     id="path2" /><polygon
     fill="#fc5200"
     points="179.88965,0 159.78174,39.69873 171.75342,39.69873 179.88965,23.627441 188.03223,39.69873 200,39.69873 "
     id="polygon2" /><polygon
     fill="#fc5200"
     points="123.91846,0 103.81885,39.69873 115.78418,39.69873 123.91846,23.627441 132.05811,39.69873 144.02881,39.69873 "
     id="polygon3" /><polygon
     fill="#fc5200"
     points="172.01416,2.342285 160.05176,2.342285 151.9126,18.412598 143.76709,2.342285 131.79639,2.342285 151.9126,42.041016 "
     id="polygon4"
     transform="translate(0,-0.041016)" /></svg>
